<svg width="137" height="249" viewBox="0 0 137 249" fill="none" xmlns="http://www.w3.org/2000/svg">
<path d="M82.3315 223.788V234.202H71.3152V223.788H41V247.788H136V223.788H82.3315Z" fill="white" stroke="#CCCCCC" stroke-width="2" stroke-linecap="round" stroke-linejoin="round"/>
<path d="M1 223.788V239.663C1.00562 241.765 1.8482 243.778 3.34356 245.264C4.83892 246.75 6.86545 247.588 8.98021 247.593H23.9999V223.788H1Z" fill="white" stroke="#CCCCCC" stroke-width="2" stroke-linecap="round" stroke-linejoin="round"/>
<path d="M135 34.7881H120V63.7881H135V34.7881Z" fill="white" stroke="#CCCCCC" stroke-width="2" stroke-linecap="round" stroke-linejoin="round"/>
<path d="M56 153.788H41V178.788H56V153.788Z" fill="white" stroke="#CCCCCC" stroke-width="2" stroke-linecap="round" stroke-linejoin="round"/>
<path d="M88 153.788H61V178.788H88V153.788Z" fill="white" stroke="#CCCCCC" stroke-width="2" stroke-linecap="round" stroke-linejoin="round"/>
<path d="M107 93.987H123.625V111.888V129.788H130.795C131.909 129.782 132.976 128.937 133.764 127.437C134.552 125.936 134.996 123.902 135 121.779V72.7881H107V93.987Z" fill="white" stroke="#CCCCCC" stroke-width="2" stroke-linecap="round" stroke-linejoin="round"/>
<path d="M91.4482 115.788V127.938H85.9981V115.788H71V143.788H118V115.788H91.4482Z" fill="white" stroke="#CCCCCC" stroke-width="2" stroke-linecap="round" stroke-linejoin="round"/>
<path d="M61.4482 186.788V197.636H55.9981V186.788H41V211.788H88V186.788H61.4482Z" fill="white" stroke="#CCCCCC" stroke-width="2" stroke-linecap="round" stroke-linejoin="round"/>
<path d="M93 1.78809H71V27.7881H93V1.78809Z" fill="white" stroke="#CCCCCC" stroke-width="2" stroke-linecap="round" stroke-linejoin="round"/>
<path d="M23 153.788H1V188.788H23V153.788Z" fill="white" stroke="#CCCCCC" stroke-width="2" stroke-linecap="round" stroke-linejoin="round"/>
<path d="M15.327 1.78809H5.97101C4.65387 1.79464 3.39185 2.63733 2.46049 4.13218C1.52912 5.62702 1.00408 7.65258 1 9.7666V38.7881H15.327V1.78809Z" fill="white" stroke="#CCCCCC" stroke-width="2" stroke-linecap="round" stroke-linejoin="round"/>
<path d="M15 78.7881H1V143.788H15V78.7881Z" fill="white" stroke="#CCCCCC" stroke-width="2" stroke-linecap="round" stroke-linejoin="round"/>
<path d="M95 88.7881H71V109.788H95V88.7881Z" fill="white" stroke="#CCCCCC" stroke-width="2" stroke-linecap="round" stroke-linejoin="round"/>
<path d="M25 195.788H1V213.788H25V195.788Z" fill="white" stroke="#CCCCCC" stroke-width="2" stroke-linecap="round" stroke-linejoin="round"/>
<path d="M57.0945 70.7881H20.8555V143.788H57.0945V70.7881Z" fill="white" stroke="#CCCCCC" stroke-width="2" stroke-linecap="round" stroke-linejoin="round"/>
<path d="M135 153.788H99V213.788H135V153.788Z" fill="white" stroke="#CCCCCC" stroke-width="2" stroke-linecap="round" stroke-linejoin="round"/>
<path d="M57.0945 1.78809H20.8555V57.7881H57.0945V1.78809Z" fill="white" stroke="#CCCCCC" stroke-width="2" stroke-linecap="round" stroke-linejoin="round"/>
<path d="M135 27.7881V6.4052C134.997 5.18166 134.502 4.00917 133.624 3.144C132.746 2.27883 131.557 1.79134 130.315 1.78809H120V27.7881H135Z" fill="#F1F7FB" stroke="#CCCCCC" stroke-width="2" stroke-linecap="round" stroke-linejoin="round"/>
<path d="M94.7006 40.0349H90.7723H71V82.7881H94.7006V65.3999H98.5597H112.698H114V1.78809H98.5597V40.0349H94.7006Z" fill="white" stroke="#CCCCCC" stroke-width="2" stroke-linecap="round" stroke-linejoin="round"/>
<path fill-rule="evenodd" clip-rule="evenodd" d="M28.4492 23.1045C27.9429 22.8957 27.4 22.7882 26.8519 22.7882C25.7525 22.7798 24.6946 23.2052 23.9106 23.9711C23.1265 24.737 22.6804 25.7808 22.6701 26.8733C22.6656 27.4182 22.7692 27.9585 22.9749 28.4635C23.1806 28.9685 23.4844 29.4283 23.869 29.8167C24.2535 30.205 24.7112 30.5143 25.216 30.7269C25.7208 30.9394 26.2628 31.0511 26.811 31.0555C27.3593 31.0599 27.903 30.9569 28.4112 30.7525C28.9194 30.5481 29.3821 30.2462 29.7729 29.8641C30.1637 29.482 30.4749 29.0271 30.6888 28.5254C30.9027 28.0238 31.015 27.4852 31.0194 26.9404C31.0208 26.3956 30.9141 25.8559 30.7053 25.3522C30.4965 24.8485 30.1897 24.3907 29.8026 24.005C29.4154 23.6193 28.9555 23.3133 28.4492 23.1045ZM20.2048 44.1812L20.2048 44.1813C20.0424 45.1474 19.8802 46.1128 19.7992 47.089C19.8035 47.3381 19.8237 47.5867 19.8595 47.8333C19.9963 48.6318 20.4492 49.2535 20.9042 49.8782L20.9564 49.95L30.6158 63.2567C30.8204 63.54 31.0229 63.826 31.2255 64.1123L31.2255 64.1124C31.8276 64.9631 32.4314 65.8162 33.1007 66.608C33.5278 67.1037 34.1349 67.4112 34.7894 67.4635C35.4439 67.5157 36.0927 67.3083 36.5938 66.8867C37.1011 66.4743 37.4307 65.8849 37.5152 65.2389C37.5997 64.593 37.4326 63.9395 37.0482 63.4119C36.3386 62.4246 35.629 61.4444 34.9193 60.4642L34.919 60.4637L34.9186 60.4632L34.9183 60.4627C32.5824 57.2454 30.2454 54.0339 27.9072 50.8284C27.8183 50.7215 27.7536 50.5969 27.7175 50.463C27.6813 50.3291 27.6746 50.189 27.6977 50.0523C27.9778 48.3299 28.2516 46.6067 28.5254 44.8838L28.5254 44.8837L28.5256 44.8828C28.8383 42.915 29.151 40.9476 29.4727 38.9822C29.6573 37.8569 29.7354 36.7597 29.32 35.6661C28.4823 33.4613 26.1713 32.0784 23.9419 32.4664C22.7492 32.6746 21.7552 33.2778 20.7967 33.9834C20.1438 34.4544 19.4923 34.9272 18.8407 35.4001C17.6428 36.2694 16.4446 37.1388 15.2375 37.998C14.9598 38.1848 14.7245 38.4272 14.5466 38.7097C14.3687 38.9922 14.2522 39.3085 14.2045 39.6384C14.079 40.4249 13.9525 41.2119 13.8259 41.9991L13.8259 41.9991C13.5584 43.6621 13.2908 45.3261 13.033 46.9902C12.8307 48.3166 13.5726 49.3291 14.8577 49.5302C15.9653 49.7066 16.9663 48.9022 17.1935 47.6534C17.2026 47.6026 17.2128 47.5525 17.2231 47.5027L17.2231 47.5027L17.2231 47.5026C17.237 47.4349 17.2507 47.3678 17.261 47.3006C17.5663 45.3604 17.8727 43.4201 18.1804 41.4799C18.1854 41.3469 18.2198 41.2166 18.2812 41.0984C18.3425 40.9801 18.4293 40.8767 18.5354 40.7955C18.9778 40.492 19.4116 40.1772 19.845 39.8628L19.845 39.8627L19.8451 39.8627C20.0968 39.68 20.3484 39.4975 20.6014 39.3173C20.6232 39.3024 20.6452 39.2832 20.6677 39.2637C20.7404 39.2005 20.8181 39.1329 20.9103 39.1868C20.9975 39.2378 20.9809 39.3292 20.965 39.4172C20.9589 39.4511 20.9529 39.4845 20.9529 39.5149C20.8828 39.9584 20.8111 40.4014 20.7395 40.8443L20.7395 40.8444L20.7395 40.8445C20.6225 41.5676 20.5056 42.2903 20.3956 43.0144C20.3355 43.404 20.2701 43.7927 20.2048 44.1812ZM17.3282 64.8733C17.3456 64.3676 17.5095 63.8776 17.8003 63.4622C19.5161 61.1104 21.2295 58.7503 22.9406 56.382C23.1394 56.1033 23.2743 56.0645 23.4944 56.382C24.3771 57.6238 25.2717 58.8585 26.1781 60.0862C26.2535 60.1659 26.2955 60.2713 26.2955 60.3807C26.2955 60.4902 26.2535 60.5955 26.1781 60.6753C25.6893 61.342 25.203 62.0096 24.7166 62.6772L24.7155 62.6788L24.7152 62.6792C23.7892 63.9504 22.8628 65.222 21.9182 66.489C21.5956 66.9104 21.1475 67.22 20.6377 67.3739C20.1279 67.5278 19.5823 67.5181 19.0783 67.3463C18.5639 67.1664 18.1187 66.8314 17.805 66.3881C17.4913 65.9448 17.3246 65.4153 17.3282 64.8733ZM32.468 42.4903L31.0906 40.6064C31.033 40.6504 30.9857 40.7063 30.9519 40.7703C30.9182 40.8342 30.8989 40.9047 30.8954 40.9769C30.6327 42.6373 30.3676 44.2988 30.1002 45.9616C30.0798 46.0699 30.0829 46.1813 30.1092 46.2884C30.1355 46.3954 30.1845 46.4957 30.2529 46.5825C30.5333 46.9634 30.8106 47.3463 31.0879 47.7291C31.4706 48.2574 31.8533 48.7858 32.2444 49.3094C32.493 49.6648 32.8462 49.9349 33.2556 50.0827C33.6649 50.2306 34.1103 50.2488 34.5305 50.1349C34.8594 50.0495 35.1622 49.8854 35.4127 49.657C35.6631 49.4286 35.8535 49.1428 35.9673 48.8245C36.0811 48.5062 36.1147 48.165 36.0654 47.8308C36.0161 47.4966 35.8852 47.1794 35.6842 46.907C35.0427 46.0002 34.3826 45.1026 33.7233 44.2062C33.3029 43.6344 32.8827 43.0632 32.468 42.4903Z" fill="#276AFD"/>
<path d="M44.5 63.7881H63.5V148.288H93V218.288H118" stroke="#FF1400" stroke-width="2"/>
<path d="M116.473 208.309L116.473 208.308L116.467 208.298C115.396 206.493 114.323 204.691 113.25 202.89C111.261 199.551 109.272 196.214 107.306 192.863C103.128 185.727 106.505 177.054 114.286 174.757L114.286 174.756C121.672 172.572 129.435 178.326 129.527 185.977L129.527 185.981C129.579 188.587 128.858 191.149 127.454 193.351L127.454 193.351L127.451 193.355C125.484 196.51 123.536 199.681 121.59 202.85C120.559 204.53 119.527 206.209 118.494 207.884L118.479 207.908L118.468 207.933C118.269 208.352 117.996 208.732 117.663 209.055L117.04 209.044C116.816 208.828 116.625 208.58 116.473 208.309ZM114.788 176.012L114.787 176.013C108.014 177.801 104.733 185.633 108.251 191.756L108.251 191.756C109.77 194.397 111.333 197.024 112.893 199.646C114.077 201.635 115.258 203.621 116.418 205.608L116.419 205.611C116.526 205.791 116.639 205.96 116.764 206.089C116.887 206.215 117.086 206.368 117.362 206.366C117.635 206.363 117.832 206.209 117.952 206.086C118.076 205.959 118.189 205.793 118.296 205.616C119.966 202.879 121.649 200.148 123.333 197.415C124.392 195.696 125.453 193.975 126.51 192.252C127.66 190.454 128.254 188.36 128.216 186.23C128.205 184.608 127.822 183.01 127.094 181.559C126.367 180.106 125.315 178.838 124.019 177.852C122.723 176.866 121.218 176.188 119.618 175.869C118.018 175.55 116.366 175.599 114.788 176.012Z" fill="#FF1400" stroke="#FF1400"/>
<path d="M123.124 188.126L123.124 188.126L123.124 188.134C123.127 188.898 122.979 189.655 122.688 190.362C122.396 191.069 121.967 191.711 121.425 192.253C120.882 192.795 120.237 193.225 119.526 193.519C118.816 193.812 118.054 193.964 117.284 193.964C114.043 193.95 111.488 191.346 111.5 187.994C111.509 187.237 111.667 186.489 111.967 185.793C112.267 185.096 112.702 184.464 113.247 183.934C113.793 183.404 114.438 182.986 115.147 182.703C115.856 182.421 116.614 182.28 117.377 182.288C118.141 182.297 118.895 182.455 119.597 182.753C120.299 183.051 120.935 183.484 121.469 184.026C122.002 184.568 122.423 185.209 122.707 185.913C122.991 186.616 123.132 187.368 123.124 188.126ZM121.823 188.083L121.823 188.081C121.812 186.889 121.335 185.749 120.493 184.901C119.652 184.054 118.512 183.566 117.316 183.539L117.306 183.539L117.295 183.539C116.094 183.562 114.951 184.056 114.113 184.913C113.277 185.769 112.814 186.919 112.825 188.113C112.818 188.695 112.928 189.273 113.148 189.813C113.368 190.354 113.696 190.846 114.111 191.26C114.525 191.673 115.019 192 115.562 192.221C116.103 192.441 116.682 192.552 117.266 192.547C117.86 192.559 118.45 192.453 119.002 192.235C119.556 192.017 120.061 191.69 120.487 191.274C120.912 190.858 121.25 190.361 121.479 189.813C121.709 189.265 121.826 188.677 121.823 188.083Z" fill="#FF1400" stroke="#FF1400"/>
</svg>
