<svg width="12" height="13" viewBox="0 0 12 13" fill="none" xmlns="http://www.w3.org/2000/svg">
<path d="M2.42269 8.76553C3.60637 10.1805 5.03127 11.2945 6.65758 12.0828C7.27678 12.3763 8.10486 12.7244 9.02743 12.7841C9.08463 12.7866 9.13933 12.7891 9.19653 12.7891C9.81572 12.7891 10.3131 12.5752 10.7184 12.1351C10.7209 12.1326 10.7259 12.1276 10.7284 12.1226C10.8726 11.9485 11.0367 11.7919 11.2083 11.6253C11.3252 11.5134 11.4445 11.3965 11.5589 11.2771C12.0886 10.7251 12.0886 10.0238 11.5539 9.48917L10.0594 7.99464C9.80578 7.73105 9.5024 7.59179 9.1841 7.59179C8.8658 7.59179 8.55993 7.73105 8.29882 7.99215L7.40857 8.8824C7.32651 8.83516 7.24196 8.79288 7.16239 8.75309C7.06292 8.70336 6.97091 8.65611 6.88885 8.60389C6.07818 8.08914 5.34211 7.41772 4.63836 6.55482C4.28276 6.10472 4.04404 5.72674 3.87742 5.3413C4.11118 5.12992 4.33001 4.9086 4.54138 4.69226C4.61598 4.61517 4.69307 4.53808 4.77016 4.46099C5.03873 4.19242 5.18296 3.88158 5.18296 3.56577C5.18296 3.24995 5.04121 2.93911 4.77016 2.67054L4.02911 1.9295C3.94208 1.84246 3.86002 1.75791 3.77547 1.67088C3.61135 1.50178 3.43976 1.32771 3.27066 1.17104C3.01453 0.919883 2.71364 0.788086 2.39534 0.788086C2.07952 0.788086 1.77614 0.919883 1.51006 1.17353L0.580027 2.10357C0.241832 2.44176 0.0503546 2.85207 0.010567 3.32704C-0.0366808 3.92137 0.0727352 4.553 0.356222 5.31643C0.791399 6.49763 1.44789 7.59428 2.42269 8.76553ZM0.617328 3.37926C0.647169 3.04853 0.773992 2.7725 1.01272 2.53377L1.93778 1.60871C2.08201 1.46945 2.24116 1.39734 2.39534 1.39734C2.54703 1.39734 2.7012 1.46945 2.84295 1.61368C3.00956 1.76786 3.16622 1.9295 3.33532 2.10108C3.41987 2.18812 3.5069 2.27515 3.59394 2.36468L4.33498 3.10572C4.48916 3.2599 4.56873 3.41656 4.56873 3.57074C4.56873 3.72492 4.48916 3.88158 4.33498 4.03576C4.25789 4.11285 4.18081 4.19242 4.10372 4.26951C3.87245 4.50327 3.65611 4.72459 3.41738 4.93596C3.41241 4.94093 3.40992 4.94342 3.40495 4.94839C3.19855 5.15479 3.23088 5.35124 3.28061 5.50045C3.2831 5.50791 3.28558 5.51288 3.28807 5.52034C3.47955 5.98039 3.74563 6.41805 4.16091 6.94027C4.90693 7.86036 5.69273 8.57405 6.55811 9.12362C6.66504 9.19325 6.77943 9.24795 6.88636 9.30266C6.98583 9.3524 7.07784 9.39964 7.1599 9.45187C7.16985 9.45684 7.17731 9.46181 7.18726 9.46679C7.26932 9.50906 7.34889 9.52895 7.42847 9.52895C7.62741 9.52895 7.75672 9.40213 7.79899 9.35986L8.72902 8.42982C8.87325 8.28559 9.02992 8.2085 9.1841 8.2085C9.37309 8.2085 9.52726 8.32538 9.62425 8.42982L11.1237 9.92683C11.4221 10.2252 11.4197 10.5485 11.1163 10.8643C11.0118 10.9762 10.9024 11.0832 10.7855 11.1951C10.6115 11.3642 10.4299 11.5382 10.2658 11.7347C9.97985 12.043 9.63917 12.1873 9.19902 12.1873C9.15674 12.1873 9.11198 12.1848 9.06971 12.1823C8.25406 12.1301 7.49561 11.8118 6.92615 11.5407C5.37941 10.7922 4.02165 9.73038 2.89517 8.38257C1.96762 7.26603 1.34345 6.22657 0.930655 5.11252C0.674523 4.42866 0.57754 3.8791 0.617328 3.37926Z" fill="white"/>
</svg>
