<svg width="12" height="13" viewBox="0 0 12 13" fill="none" xmlns="http://www.w3.org/2000/svg">
<path fill-rule="evenodd" clip-rule="evenodd" d="M9.24171 12.0413H9.25804C9.56474 12.0406 9.8585 11.9176 10.0743 11.6995L11.6565 10.1169C11.8841 9.88909 11.8841 9.51984 11.6565 9.29205L9.3245 6.95871C9.09683 6.73099 8.72779 6.73099 8.50012 6.95871L7.49527 8.28784C6.85117 8.11496 5.99838 7.72709 5.49638 7.28784C5.05753 6.78466 4.66951 5.93296 4.49693 5.28784L5.82644 4.28355C6.05404 4.05576 6.05404 3.68651 5.82644 3.45872L3.49441 1.12538C3.26674 0.897659 2.89769 0.897659 2.67003 1.12538L1.27599 2.62105C1.05414 2.84292 0.930986 3.14488 0.934284 3.45872C0.989559 5.69904 1.69612 7.9231 3.25304 9.53413C4.86464 11.0913 7.00198 11.9861 9.24171 12.0413Z" fill="white"/>
</svg>
