<svg width="14" height="15" viewBox="0 0 14 15" fill="none" xmlns="http://www.w3.org/2000/svg">
<g clip-path="url(#clip0)">
<path d="M6.99873 0.788208C9.71265 0.788208 11.9206 2.99616 11.9206 5.71008C11.9206 6.62703 11.6666 7.52188 11.1859 8.29823L7.2789 14.5943C7.20406 14.7149 7.07221 14.7882 6.9304 14.7882C6.92931 14.7882 6.92824 14.7882 6.92715 14.7882C6.78411 14.7871 6.65199 14.7115 6.57852 14.5888L2.7711 8.23173C2.31693 7.47179 2.07688 6.59982 2.07688 5.71008C2.07688 2.99616 4.28482 0.788208 6.99873 0.788208ZM3.47507 7.81058L6.93661 13.5902L10.4887 7.86603C10.8888 7.21984 11.1058 6.47434 11.1058 5.71008C11.1058 3.44848 9.26033 1.60305 6.99873 1.60305C4.73714 1.60305 2.89445 3.44848 2.89445 5.71008C2.89445 6.45167 3.09709 7.17812 3.47507 7.81058Z" fill="white"/>
<path d="M6.99503 3.24994C8.35199 3.24994 9.45596 4.35392 9.45596 5.71088C9.45596 7.05917 8.36995 8.17181 6.99503 8.17181C5.60316 8.17181 4.5341 7.04435 4.5341 5.71088C4.5341 4.35392 5.63808 3.24994 6.99503 3.24994ZM6.99503 7.35697C7.9044 7.35697 8.64112 6.61779 8.64112 5.71088C8.64112 4.80624 7.89967 4.06478 6.99503 4.06478C6.09039 4.06478 5.35168 4.80624 5.35168 5.71088C5.35168 6.60455 6.07125 7.35697 6.99503 7.35697Z" fill="white"/>
</g>
<defs>
<clipPath id="clip0">
<rect width="14" height="14" fill="white" transform="matrix(-1 0 0 1 13.9993 0.788086)"/>
</clipPath>
</defs>
</svg>
